<?xml version="1.0" encoding="UTF-8"?>
<!DOCTYPE svg PUBLIC "-//W3C//DTD SVG 1.1//EN" "http://www.w3.org/Graphics/SVG/1.1/DTD/svg11.dtd">
<svg xmlns="http://www.w3.org/2000/svg" version="1.1" width="100px" height="100px" style="shape-rendering:geometricPrecision; text-rendering:geometricPrecision; image-rendering:optimizeQuality; fill-rule:evenodd; clip-rule:evenodd" xmlns:xlink="http://www.w3.org/1999/xlink">
<g><path style="opacity:0.868" fill="#000000" d="M 48.5,6.5 C 49.8221,6.33003 50.9887,6.66337 52,7.5C 53.5946,15.6286 57.0946,22.7953 62.5,29C 64.9162,30.0629 67.4162,30.8963 70,31.5C 73.6099,29.556 76.9432,27.2226 80,24.5C 82.5277,25.1969 83.6944,26.8636 83.5,29.5C 82.9804,32.9116 82.1471,36.245 81,39.5C 76.3333,48.8333 71.6667,58.1667 67,67.5C 64.5409,75.047 62.5409,82.7137 61,90.5C 55.9444,96.2161 50.1111,97.0495 43.5,93C 41.6667,91.8333 40.1667,90.3333 39,88.5C 36.802,82.2388 34.802,75.9055 33,69.5C 28.0631,60.6257 23.3964,51.6257 19,42.5C 16.7998,37.6973 16.1332,32.6973 17,27.5C 17.5613,26.9781 18.228,26.6448 19,26.5C 21.8019,28.2108 24.3019,30.3775 26.5,33C 32.0164,33.1955 36.5164,31.0288 40,26.5C 43.707,20.0994 46.5403,13.4327 48.5,6.5 Z"/></g>
</svg>
